<?xml version="1.0" encoding="UTF-8" standalone="no"?>
<svg
   id="Layer_1"
   data-name="Layer 1"
   viewBox="0 0 121.58 122.88"
   version="1.1"
   sodipodi:docname="live-chat-light.svg"
   inkscape:version="1.2.2 (b0a8486541, 2022-12-01)"
   xmlns:inkscape="http://www.inkscape.org/namespaces/inkscape"
   xmlns:sodipodi="http://sodipodi.sourceforge.net/DTD/sodipodi-0.dtd"
   xmlns="http://www.w3.org/2000/svg"
   xmlns:svg="http://www.w3.org/2000/svg"
   xmlns:rdf="http://www.w3.org/1999/02/22-rdf-syntax-ns#"
   xmlns:cc="http://creativecommons.org/ns#"
   xmlns:dc="http://purl.org/dc/elements/1.1/">
  <defs
     id="defs9" />
  <sodipodi:namedview
     id="namedview7"
     pagecolor="#ffffff"
     bordercolor="#000000"
     borderopacity="0.25"
     inkscape:showpageshadow="2"
     inkscape:pageopacity="0.0"
     inkscape:pagecheckerboard="0"
     inkscape:deskcolor="#d1d1d1"
     showgrid="false"
     inkscape:zoom="6.966146"
     inkscape:cx="60.794017"
     inkscape:cy="61.511774"
     inkscape:window-width="1920"
     inkscape:window-height="1018"
     inkscape:window-x="0"
     inkscape:window-y="27"
     inkscape:window-maximized="1"
     inkscape:current-layer="Layer_1" />
  <title
     id="title2">message</title>
  <path
     d="M25.8,111.27,44.08,94.69a3.46,3.46,0,0,1,2.41-1h66.18a2,2,0,0,0,2-1.95V8.9a2,2,0,0,0-2-1.95H8.9A1.95,1.95,0,0,0,7,8.9V91.76a1.95,1.95,0,0,0,2,1.95H22.33a3.48,3.48,0,0,1,3.47,3.48v14.08Zm1.17-45a3.48,3.48,0,0,0,0,7H68a3.48,3.48,0,0,0,0-7Zm0-39.86a3.48,3.48,0,0,0,0,7H94.69a3.48,3.48,0,1,0,0-6.95Zm0,19.93a3.48,3.48,0,0,0,0,6.95H87.66a3.48,3.48,0,0,0,0-6.95Zm20.9,54.32-23,21.07a3.48,3.48,0,0,1-6.06-2.32V100.66H8.9A8.91,8.91,0,0,1,0,91.76V8.9A8.91,8.91,0,0,1,8.9,0H112.67a8.93,8.93,0,0,1,8.91,8.9V91.76a8.93,8.93,0,0,1-8.91,8.9Z"
     id="path4"
     style="fill:#ffffff" />
  <metadata
     id="metadata862">
    <rdf:RDF>
      <cc:Work
         rdf:about="">
        <dc:title>message</dc:title>
      </cc:Work>
    </rdf:RDF>
  </metadata>
</svg>
