<?xml version="1.0" encoding="UTF-8" standalone="no"?>
<svg
   viewBox="0 0 134 30"
   version="1.1"
   id="svg10"
   sodipodi:docname="qttube-full-light.svg"
   width="134"
   height="30"
   inkscape:export-filename="C:\Users\alex\sites\paramount-plus-logo-0.png"
   inkscape:export-xdpi="561.73712"
   inkscape:export-ydpi="561.73712"
   inkscape:version="1.2.2 (b0a8486541, 2022-12-01)"
   xml:space="preserve"
   xmlns:inkscape="http://www.inkscape.org/namespaces/inkscape"
   xmlns:sodipodi="http://sodipodi.sourceforge.net/DTD/sodipodi-0.dtd"
   xmlns="http://www.w3.org/2000/svg"
   xmlns:svg="http://www.w3.org/2000/svg"
   xmlns:rdf="http://www.w3.org/1999/02/22-rdf-syntax-ns#"
   xmlns:cc="http://creativecommons.org/ns#"
   xmlns:dc="http://purl.org/dc/elements/1.1/"><metadata
     id="metadata16"><rdf:RDF><cc:Work
         rdf:about=""><dc:format>image/svg+xml</dc:format><dc:type
           rdf:resource="http://purl.org/dc/dcmitype/StillImage" /><dc:title>Paramount+ Home</dc:title></cc:Work></rdf:RDF></metadata><defs
     id="defs14" /><sodipodi:namedview
     pagecolor="#ffffff"
     bordercolor="#666666"
     borderopacity="1"
     objecttolerance="10"
     gridtolerance="10"
     guidetolerance="10"
     inkscape:pageopacity="0"
     inkscape:pageshadow="2"
     inkscape:window-width="1920"
     inkscape:window-height="1018"
     id="namedview12"
     showgrid="false"
     inkscape:zoom="7.6439137"
     inkscape:cx="70.840674"
     inkscape:cy="13.016892"
     inkscape:window-x="0"
     inkscape:window-y="27"
     inkscape:window-maximized="1"
     inkscape:current-layer="svg10"
     inkscape:pagecheckerboard="0"
     height="660px"
     inkscape:snap-others="true"
     inkscape:snap-global="true"
     inkscape:object-paths="true"
     inkscape:showpageshadow="2"
     inkscape:deskcolor="#d1d1d1" /><title
     id="title2">Paramount+ Home</title><g
     id="svgg"
     transform="matrix(0.10637581,0,0,0.10637581,0.13229926,-0.18137076)"><path
       id="path0"
       d="m 60.387,2.417 c -0.112,0.444 -0.38,0.71 -0.716,0.71 -0.349,0 -0.538,0.201 -0.538,0.569 0,0.379 -0.19,0.568 -0.569,0.568 -0.379,0 -0.568,0.19 -0.568,0.569 0,0.379 -0.19,0.569 -0.569,0.569 -0.379,0 -0.568,0.189 -0.568,0.568 0,0.373 -0.19,0.569 -0.55,0.569 -0.302,0 -0.626,0.242 -0.72,0.538 -0.094,0.295 -0.422,0.603 -0.73,0.684 -0.331,0.086 -0.559,0.388 -0.559,0.741 0,0.406 -0.181,0.595 -0.569,0.595 -0.379,0 -0.568,0.19 -0.568,0.569 0,0.379 -0.19,0.569 -0.569,0.569 -0.379,0 -0.568,0.189 -0.568,0.568 0,0.379 -0.19,0.569 -0.569,0.569 -0.372,0 -0.569,0.189 -0.569,0.549 0,0.35 -0.23,0.584 -0.639,0.646 -0.352,0.054 -0.609,0.252 -0.571,0.441 0.038,0.189 -0.249,0.552 -0.639,0.808 -0.39,0.255 -0.709,0.641 -0.709,0.858 0,0.216 -0.256,0.394 -0.569,0.394 -0.379,0 -0.568,0.189 -0.568,0.568 0,0.379 -0.19,0.569 -0.569,0.569 -0.379,0 -0.569,0.189 -0.569,0.568 0,0.379 -0.189,0.569 -0.568,0.569 -0.379,0 -0.569,0.189 -0.569,0.568 0,0.388 -0.189,0.569 -0.595,0.569 -0.346,0 -0.654,0.227 -0.737,0.542 -0.078,0.299 -0.386,0.606 -0.684,0.684 -0.316,0.083 -0.542,0.391 -0.542,0.737 0,0.406 -0.181,0.596 -0.569,0.596 -0.379,0 -0.569,0.189 -0.569,0.568 0,0.379 -0.189,0.569 -0.568,0.569 -0.379,0 -0.569,0.189 -0.569,0.568 0,0.379 -0.189,0.569 -0.568,0.569 -0.368,0 -0.569,0.19 -0.569,0.538 0,0.339 -0.267,0.605 -0.722,0.719 -0.398,0.1 -0.646,0.305 -0.553,0.456 0.094,0.151 -0.157,0.424 -0.557,0.606 -0.399,0.182 -0.727,0.566 -0.727,0.854 0,0.333 -0.206,0.523 -0.568,0.523 -0.379,0 -0.569,0.189 -0.569,0.568 0,0.379 -0.189,0.569 -0.568,0.569 -0.379,0 -0.569,0.19 -0.569,0.569 0,0.379 -0.189,0.568 -0.568,0.568 -0.38,0 -0.569,0.19 -0.569,0.569 0,0.387 -0.19,0.568 -0.595,0.568 -0.353,0 -0.655,0.228 -0.742,0.56 -0.08,0.307 -0.388,0.635 -0.684,0.729 -0.296,0.094 -0.538,0.418 -0.538,0.721 0,0.359 -0.196,0.549 -0.568,0.549 -0.379,0 -0.569,0.189 -0.569,0.569 0,0.379 -0.189,0.568 -0.568,0.568 -0.379,0 -0.569,0.19 -0.569,0.569 0,0.379 -0.19,0.568 -0.569,0.568 -0.368,0 -0.568,0.19 -0.568,0.538 0,0.337 -0.266,0.605 -0.711,0.716 -0.391,0.098 -0.711,0.353 -0.711,0.566 0,0.214 -0.256,0.455 -0.568,0.537 -0.34,0.089 -0.569,0.388 -0.569,0.744 0,0.406 -0.181,0.595 -0.568,0.595 -0.379,0 -0.569,0.19 -0.569,0.569 0,0.379 -0.19,0.568 -0.569,0.568 -0.379,0 -0.568,0.19 -0.568,0.569 0,0.379 -0.19,0.568 -0.569,0.568 -0.379,0 -0.568,0.19 -0.568,0.569 0,0.313 -0.16,0.57 -0.356,0.572 -0.441,0.003 -2.203,1.787 -2.203,2.23 0,0.179 -0.256,0.325 -0.569,0.325 -0.379,0 -0.568,0.19 -0.568,0.569 0,0.379 -0.19,0.568 -0.569,0.568 -0.379,0 -0.568,0.19 -0.568,0.569 0,0.379 -0.19,0.569 -0.569,0.569 -0.368,0 -0.568,0.189 -0.568,0.537 0,0.337 -0.266,0.605 -0.711,0.717 -0.454,0.113 -0.711,0.378 -0.711,0.732 0,0.369 -0.139,0.501 -0.414,0.395 -0.277,-0.106 -0.477,0.087 -0.6,0.578 -0.117,0.468 -0.381,0.736 -0.723,0.736 -0.348,0 -0.537,0.201 -0.537,0.569 0,0.379 -0.19,0.569 -0.569,0.569 -0.379,0 -0.568,0.189 -0.568,0.568 0,0.379 -0.19,0.569 -0.569,0.569 -0.568,0 -0.569,0.189 -0.569,115.28 v 115.281 h 164.867 c 90.677,0 165.069,-0.077 165.316,-0.172 0.304,-0.117 0.45,-0.533 0.45,-1.28 0,-0.917 0.097,-1.106 0.569,-1.106 0.379,0 0.568,-0.19 0.568,-0.569 0,-0.379 0.19,-0.569 0.569,-0.569 0.379,0 0.568,-0.189 0.568,-0.568 0,-0.379 0.19,-0.569 0.569,-0.569 0.379,0 0.568,-0.189 0.568,-0.568 0,-0.417 0.19,-0.569 0.711,-0.569 0.507,0 0.711,-0.154 0.711,-0.535 0,-0.297 0.254,-0.602 0.568,-0.684 0.341,-0.089 0.569,-0.388 0.569,-0.744 0,-0.406 0.181,-0.596 0.569,-0.596 0.379,0 0.568,-0.189 0.568,-0.568 0,-0.379 0.19,-0.569 0.569,-0.569 0.379,0 0.568,-0.189 0.568,-0.568 0,-0.379 0.19,-0.569 0.569,-0.569 0.379,0 0.569,-0.189 0.569,-0.568 0,-0.417 0.189,-0.569 0.71,-0.569 0.522,0 0.711,-0.152 0.711,-0.569 0,-0.379 0.19,-0.568 0.569,-0.568 0.417,0 0.568,-0.19 0.568,-0.711 0,-0.521 0.152,-0.711 0.569,-0.711 0.379,0 0.568,-0.189 0.568,-0.568 0,-0.379 0.19,-0.569 0.569,-0.569 0.379,0 0.569,-0.189 0.569,-0.568 0,-0.38 0.189,-0.569 0.568,-0.569 0.379,0 0.569,-0.19 0.569,-0.569 0,-0.417 0.189,-0.568 0.71,-0.568 0.507,0 0.711,-0.154 0.711,-0.536 0,-0.296 0.254,-0.601 0.569,-0.684 0.34,-0.089 0.568,-0.388 0.568,-0.744 0,-0.405 0.181,-0.595 0.569,-0.595 0.379,0 0.569,-0.189 0.569,-0.568 0,-0.379 0.189,-0.569 0.568,-0.569 0.379,0 0.569,-0.19 0.569,-0.569 0,-0.379 0.189,-0.568 0.568,-0.568 0.379,0 0.569,-0.19 0.569,-0.569 0,-0.387 0.189,-0.568 0.595,-0.568 0.356,0 0.655,-0.229 0.744,-0.569 0.082,-0.315 0.388,-0.569 0.684,-0.569 0.382,0 0.536,-0.204 0.536,-0.71 0,-0.521 0.151,-0.711 0.568,-0.711 0.379,0 0.569,-0.19 0.569,-0.569 0,-0.379 0.189,-0.568 0.568,-0.568 0.379,0 0.569,-0.19 0.569,-0.569 0,-0.379 0.189,-0.568 0.568,-0.568 0.38,0 0.569,-0.19 0.569,-0.569 0,-0.417 0.19,-0.569 0.711,-0.569 0.521,0 0.71,-0.151 0.71,-0.568 0,-0.379 0.19,-0.569 0.569,-0.569 0.417,0 0.569,-0.189 0.569,-0.71 0,-0.522 0.151,-0.711 0.568,-0.711 0.379,0 0.569,-0.19 0.569,-0.569 0,-0.379 0.189,-0.568 0.568,-0.568 0.379,0 0.569,-0.19 0.569,-0.569 0,-0.379 0.19,-0.568 0.569,-0.568 0.379,0 0.568,-0.19 0.568,-0.569 0,-0.417 0.19,-0.569 0.711,-0.569 0.521,0 0.711,-0.151 0.711,-0.568 0,-0.379 0.189,-0.569 0.568,-0.569 0.417,0 0.569,-0.189 0.569,-0.711 0,-0.521 0.151,-0.71 0.568,-0.71 0.379,0 0.569,-0.19 0.569,-0.569 0,-0.379 0.19,-0.568 0.569,-0.568 0.379,0 0.568,-0.19 0.568,-0.569 0,-0.379 0.19,-0.569 0.569,-0.569 0.379,0 0.568,-0.189 0.568,-0.568 0,-0.417 0.19,-0.569 0.711,-0.569 0.521,0 0.711,-0.151 0.711,-0.568 0,-0.379 0.189,-0.569 0.568,-0.569 0.417,0 0.569,-0.19 0.569,-0.711 0,-0.521 0.152,-0.71 0.569,-0.71 0.379,0 0.568,-0.19 0.568,-0.569 0,-0.379 0.19,-0.569 0.569,-0.569 0.379,0 0.568,-0.189 0.568,-0.568 0,-0.379 0.19,-0.569 0.569,-0.569 0.379,0 0.568,-0.189 0.568,-0.568 0,-0.417 0.19,-0.569 0.711,-0.569 0.521,0 0.711,-0.152 0.711,-0.569 0,-0.379 0.189,-0.568 0.569,-0.568 0.416,0 0.568,-0.19 0.568,-0.711 0,-0.521 0.152,-0.711 0.569,-0.711 0.379,0 0.568,-0.189 0.568,-0.568 0,-0.398 0.193,-0.571 0.64,-0.578 0.352,-0.005 0.863,-0.179 1.137,-0.387 0.472,-0.358 0.498,-6.182 0.498,-115.272 V 1.705 L 225.734,1.706 60.565,1.708 60.387,2.417 m 88.961,60.198 c 0.491,0.352 1.214,0.818 1.607,1.036 0.394,0.218 1.163,0.642 1.71,0.944 0.548,0.301 1.465,0.827 2.04,1.167 0.575,0.341 3.361,1.964 6.193,3.605 2.831,1.642 5.751,3.338 6.489,3.768 0.737,0.43 1.597,0.908 1.909,1.061 0.313,0.153 1.081,0.602 1.706,0.996 0.626,0.395 1.585,0.923 2.132,1.174 0.548,0.252 1.059,0.543 1.137,0.648 0.079,0.106 2.929,1.786 6.334,3.735 3.405,1.949 6.795,3.896 7.534,4.327 0.738,0.431 1.534,0.87 1.769,0.977 0.234,0.106 1.228,0.681 2.208,1.278 0.98,0.596 1.898,1.084 2.041,1.084 0.142,0 0.428,0.163 0.634,0.363 0.372,0.359 8.924,5.295 12.846,7.414 1.116,0.603 2.231,1.275 2.478,1.493 0.247,0.218 0.556,0.396 0.688,0.396 0.132,0 0.442,0.174 0.688,0.386 0.247,0.212 1.345,0.869 2.439,1.46 1.095,0.591 2.246,1.222 2.559,1.402 0.726,0.417 3.562,2.097 4.122,2.441 0.235,0.144 1.619,0.938 3.077,1.764 1.458,0.826 3.121,1.786 3.696,2.132 0.575,0.346 1.429,0.837 1.898,1.091 1.542,0.833 3.627,2.022 6.455,3.681 0.267,0.156 1.994,1.152 3.838,2.213 1.844,1.061 3.545,2.048 3.78,2.194 0.458,0.285 7.158,4.121 8.455,4.841 0.432,0.239 1.104,0.639 1.495,0.889 0.391,0.25 1.414,0.835 2.274,1.3 0.86,0.465 2.09,1.152 2.732,1.527 2.44,1.424 9.554,5.533 10.289,5.943 0.422,0.235 1.407,0.782 2.189,1.214 0.782,0.433 1.933,1.107 2.559,1.497 0.625,0.391 1.329,0.793 1.563,0.893 0.235,0.101 0.746,0.403 1.137,0.673 0.391,0.27 1.511,0.897 2.488,1.394 0.977,0.496 1.777,1.031 1.777,1.187 0,0.488 -0.574,1.385 -0.886,1.385 -0.261,0 -14.742,8.167 -17.535,9.889 -0.579,0.357 -1.437,0.846 -1.906,1.085 -0.469,0.24 -1.323,0.716 -1.898,1.057 -1.84,1.092 -11.295,6.574 -12.105,7.018 -0.704,0.387 -3.305,1.875 -4.761,2.726 -0.312,0.182 -1.096,0.635 -1.742,1.005 -2.028,1.164 -5.347,3.098 -5.791,3.375 -0.235,0.146 -1.619,0.941 -3.077,1.767 -1.458,0.826 -3.121,1.785 -3.696,2.132 -0.575,0.346 -1.451,0.823 -1.947,1.06 -0.495,0.237 -1.455,0.803 -2.132,1.257 -0.677,0.454 -2.145,1.32 -3.263,1.924 -1.742,0.943 -8.883,5.047 -13.146,7.557 -0.721,0.424 -1.84,1.064 -2.487,1.421 -0.963,0.532 -10.224,5.856 -11.759,6.76 -2.154,1.269 -7.18,4.149 -8.813,5.05 -1.013,0.559 -5.532,3.145 -6.823,3.906 -3.16,1.86 -13.003,7.505 -13.856,7.946 -0.588,0.303 -1.239,0.719 -1.445,0.923 -0.207,0.205 -0.541,0.372 -0.744,0.372 -0.202,0 -0.673,0.24 -1.047,0.534 -0.614,0.483 -2.342,1.485 -5.083,2.946 -0.547,0.292 -2.133,1.227 -3.525,2.079 -1.391,0.852 -2.766,1.548 -3.056,1.548 -0.537,0 -0.873,-152.224 -0.337,-152.76 0.349,-0.348 0.994,-0.195 1.895,0.45"
       stroke="none"
       fill="#41cd52"
       fill-rule="evenodd" /><path
       id="path1"
       d="m 147.453,62.165 c -0.536,0.536 -0.2,152.76 0.337,152.76 0.29,0 1.665,-0.696 3.056,-1.548 1.392,-0.852 2.978,-1.787 3.525,-2.079 2.741,-1.461 4.469,-2.463 5.083,-2.946 0.374,-0.294 0.845,-0.534 1.047,-0.534 0.203,0 0.537,-0.167 0.744,-0.372 0.206,-0.204 0.857,-0.62 1.445,-0.923 0.853,-0.441 10.696,-6.086 13.856,-7.946 1.291,-0.761 5.81,-3.347 6.823,-3.906 1.633,-0.901 6.659,-3.781 8.813,-5.05 1.535,-0.904 10.796,-6.228 11.759,-6.76 0.647,-0.357 1.766,-0.997 2.487,-1.421 4.263,-2.51 11.404,-6.614 13.146,-7.557 1.118,-0.604 2.586,-1.47 3.263,-1.924 0.677,-0.454 1.637,-1.02 2.132,-1.257 0.496,-0.237 1.372,-0.714 1.947,-1.06 0.575,-0.347 2.238,-1.306 3.696,-2.132 1.458,-0.826 2.842,-1.621 3.077,-1.767 0.444,-0.277 3.763,-2.211 5.791,-3.375 0.646,-0.37 1.43,-0.823 1.742,-1.005 1.456,-0.851 4.057,-2.339 4.761,-2.726 0.81,-0.444 10.265,-5.926 12.105,-7.018 0.575,-0.341 1.429,-0.817 1.898,-1.057 0.469,-0.239 1.327,-0.728 1.906,-1.085 2.793,-1.722 17.274,-9.889 17.535,-9.889 0.312,0 0.886,-0.897 0.886,-1.385 0,-0.156 -0.8,-0.691 -1.777,-1.187 -0.977,-0.497 -2.097,-1.124 -2.488,-1.394 -0.391,-0.27 -0.902,-0.572 -1.137,-0.673 -0.234,-0.1 -0.938,-0.502 -1.563,-0.893 -0.626,-0.39 -1.777,-1.064 -2.559,-1.497 -0.782,-0.432 -1.767,-0.979 -2.189,-1.214 -0.735,-0.41 -7.849,-4.519 -10.289,-5.943 -0.642,-0.375 -1.872,-1.062 -2.732,-1.527 -0.86,-0.465 -1.883,-1.05 -2.274,-1.3 -0.391,-0.25 -1.063,-0.65 -1.495,-0.889 -1.297,-0.72 -7.997,-4.556 -8.455,-4.841 -0.235,-0.146 -1.936,-1.133 -3.78,-2.194 -1.844,-1.061 -3.571,-2.057 -3.838,-2.213 -2.828,-1.659 -4.913,-2.848 -6.455,-3.681 -0.469,-0.254 -1.323,-0.745 -1.898,-1.091 -0.575,-0.346 -2.238,-1.306 -3.696,-2.132 -1.458,-0.826 -2.842,-1.62 -3.077,-1.764 -0.56,-0.344 -3.396,-2.024 -4.122,-2.441 -0.313,-0.18 -1.464,-0.811 -2.559,-1.402 -1.094,-0.591 -2.192,-1.248 -2.439,-1.46 -0.246,-0.212 -0.556,-0.386 -0.688,-0.386 -0.132,0 -0.441,-0.178 -0.688,-0.396 -0.247,-0.218 -1.362,-0.89 -2.478,-1.493 -3.922,-2.119 -12.474,-7.055 -12.846,-7.414 -0.206,-0.2 -0.492,-0.363 -0.634,-0.363 -0.143,0 -1.061,-0.488 -2.041,-1.084 -0.98,-0.597 -1.974,-1.172 -2.208,-1.278 -0.235,-0.107 -1.031,-0.546 -1.769,-0.977 -0.739,-0.431 -4.129,-2.378 -7.534,-4.327 -3.405,-1.949 -6.255,-3.629 -6.334,-3.735 -0.078,-0.105 -0.589,-0.396 -1.137,-0.648 -0.547,-0.251 -1.506,-0.779 -2.132,-1.174 -0.625,-0.394 -1.393,-0.843 -1.706,-0.996 -0.312,-0.153 -1.172,-0.631 -1.909,-1.061 -0.738,-0.43 -3.658,-2.126 -6.489,-3.768 -2.832,-1.641 -5.618,-3.264 -6.193,-3.605 -0.575,-0.34 -1.492,-0.866 -2.04,-1.167 -0.547,-0.302 -1.316,-0.726 -1.71,-0.944 -0.393,-0.218 -1.116,-0.684 -1.607,-1.036 -0.901,-0.645 -1.546,-0.798 -1.895,-0.45"
       stroke="none"
       fill="#fefefe"
       fill-rule="evenodd" /></g><g
     aria-label="QtTube"
     transform="scale(1.1575243,0.86391276)"
     id="text1012"
     style="font-size:41.8115px;font-family:'Alternate Gothic No2 D';-inkscape-font-specification:'Alternate Gothic No2 D';letter-spacing:-1.03819px;display:inline;fill:#ffffff;stroke-width:0"><path
       d="m 55.144037,32.381221 q -1.839706,-0.04181 -2.884994,-0.585361 -1.045287,-0.501738 -1.756083,-1.714271 -0.752607,0.334492 -1.379779,0.459926 -0.627173,0.125435 -1.37978,0.125435 -1.463402,0 -2.759559,-0.54355 -1.296156,-0.585361 -2.132386,-1.67246 -0.501738,-0.627172 -0.83623,-1.254345 -0.334492,-0.627172 -0.54355,-1.463402 -0.167246,-0.83623 -0.250869,-1.923329 -0.04181,-1.087099 -0.04181,-2.634125 v -9.74208 q 0,-1.5470252 0.04181,-2.6341242 0.08362,-1.087099 0.250869,-1.923329 0.209058,-0.83623 0.54355,-1.4634025 0.334492,-0.6271725 0.83623,-1.254345 0.83623,-1.0452875 2.090575,-1.6306486 1.296156,-0.585361 2.759559,-0.585361 1.463402,0 2.759559,0.585361 1.296156,0.5853611 2.132386,1.6306486 0.501738,0.6271725 0.794419,1.254345 0.334492,0.6271725 0.501738,1.4634025 0.209057,0.7944185 0.29268,1.923329 0.08362,1.087099 0.08362,2.6341242 v 9.74208 q 0,1.296157 -0.04181,2.257821 -0.04181,0.919853 -0.167246,1.630649 -0.08362,0.710795 -0.292681,1.254345 -0.167246,0.543549 -0.418115,1.045287 0.334492,0.418115 0.710796,0.627173 0.376303,0.167246 1.087099,0.250869 z M 45.360146,20.715812 q 0,2.090576 0.04181,3.094052 0.08362,1.003476 0.250869,1.463402 0.585361,1.505214 2.090575,1.505214 1.714272,0 2.174198,-1.923329 0.167246,-0.710795 0.167246,-4.139339 v -8.822226 q 0,-2.1323867 -0.08362,-3.0940512 -0.04181,-1.003476 -0.209057,-1.4634025 -0.585361,-1.505214 -2.048764,-1.505214 -1.756083,0 -2.216009,1.923329 -0.08362,0.3763035 -0.125435,1.4634025 -0.04181,1.0870992 -0.04181,2.6759362 z"
       id="path2013" /><path
       d="m 64.809564,12.897062 h -3.135863 v 10.327441 q 0,1.087099 0.08362,1.756083 0.08362,0.668984 0.292681,1.087099 0.250869,0.418115 0.627172,0.585361 0.418115,0.125434 1.003476,0.125434 0.459927,0 1.128911,-0.167246 v 3.553978 q -0.83623,0.209057 -1.463403,0.29268 -0.585361,0.08362 -1.212533,0.08362 -2.21601,0 -3.303109,-1.547025 -0.29268,-0.376304 -0.459926,-0.752607 -0.167246,-0.376304 -0.292681,-0.83623 -0.08362,-0.459927 -0.125434,-1.087099 -0.04181,-0.668984 -0.04181,-1.630649 V 12.897062 H 55.611033 V 9.4685188 h 2.299633 v -5.686364 h 3.763035 v 5.686364 h 3.135863 z"
       id="path2015" /><path
       d="m 73.053505,30.248835 h -4.18115 V 6.2490333 H 64.440336 V 2.3605637 h 13.128811 v 3.8884696 h -4.515642 z"
       id="path2017" /><path
       d="m 87.903606,30.248835 h -3.763035 v -2.257821 q -0.668984,0.710795 -1.212533,1.212533 -0.54355,0.501738 -1.045288,0.794419 -0.501738,0.29268 -1.003476,0.418115 -0.501738,0.125434 -1.045287,0.125434 -1.37978,0 -2.090575,-0.961664 -0.418115,-0.585361 -0.54355,-1.337968 -0.125434,-0.752607 -0.125434,-2.592313 V 9.4685188 h 3.763035 V 24.771528 q 0,0.919853 0,1.212534 0.04181,0.29268 0.125434,0.501738 0.125435,0.627172 0.794419,0.627172 1.12891,0 2.383255,-1.756083 V 9.4685188 h 3.763035 z"
       id="path2019" /><path
       d="m 93.889747,11.475471 q 1.045287,-1.254345 1.923329,-1.7560832 0.878041,-0.5435495 1.96514,-0.5435495 1.881518,0 2.717744,1.6724597 0.20906,0.418115 0.3345,0.83623 0.12543,0.418115 0.20905,0.961665 0.0836,0.543549 0.0836,1.296156 0.0418,0.710796 0.0418,1.756083 v 8.320489 q 0,1.045288 -0.0418,1.797895 0,0.710795 -0.0836,1.254345 -0.0836,0.543549 -0.20905,0.961664 -0.12544,0.418115 -0.3345,0.83623 -0.836226,1.67246 -2.717744,1.67246 -1.087099,0 -1.96514,-0.501738 -0.878042,-0.543549 -1.923329,-1.797894 v 2.006952 H 90.126712 V 2.3605637 h 3.763035 z m 0,14.717648 q 0.961664,0.919853 1.881517,0.919853 1.003476,0 1.337968,-0.752607 0.209058,-0.376303 0.250869,-0.794418 0.04181,-0.418115 0.04181,-1.505214 v -8.404112 q 0,-1.087099 -0.04181,-1.505214 -0.04181,-0.459927 -0.250869,-0.794419 -0.334492,-0.752607 -1.337968,-0.752607 -0.919853,0 -1.881517,0.919853 z"
       id="path2021" /><path
       d="m 106.81657,20.548566 v 3.679413 q 0,2.884993 1.8397,2.884993 1.75609,0 1.7979,-2.341444 v -1.045287 l 0.0418,-0.668984 h 3.80485 v 0.961664 q 0,1.714272 -0.20906,2.592313 -0.20906,0.878042 -0.75261,1.67246 -0.75261,1.087099 -1.96514,1.67246 -1.21253,0.585361 -2.59231,0.585361 -1.33797,0 -2.59232,-0.585361 -1.21253,-0.585361 -1.92332,-1.547025 -0.66899,-0.878042 -0.96167,-2.006952 -0.25087,-1.128911 -0.25087,-2.926805 v -7.23339 q 0,-1.839706 0.25087,-2.926805 0.29268,-1.128911 0.91985,-2.006952 0.7108,-0.961665 1.92333,-1.5470257 1.21254,-0.585361 2.5505,-0.585361 1.33797,0 2.50869,0.585361 1.17073,0.5435497 1.92333,1.5470257 0.62718,0.878041 0.87805,2.006952 0.29268,1.087099 0.29268,2.926805 v 4.306584 z m 3.72122,-5.059191 q 0,-1.505214 -0.45993,-2.174198 -0.41811,-0.710796 -1.37978,-0.710796 -1.88151,0 -1.88151,2.884994 v 1.923329 h 3.72122 z"
       id="path2023" /></g></svg>
