<?xml version="1.0" encoding="UTF-8" standalone="no"?>
<!-- Generator: Adobe Illustrator 16.0.0, SVG Export Plug-In . SVG Version: 6.00 Build 0)  -->

<svg
   version="1.1"
   id="Capa_1"
   x="0px"
   y="0px"
   width="400"
   height="467.05884"
   viewBox="0 0 400 467.05884"
   xml:space="preserve"
   inkscape:version="1.2.2 (b0a8486541, 2022-12-01)"
   sodipodi:docname="settings-light.svg"
   xmlns:inkscape="http://www.inkscape.org/namespaces/inkscape"
   xmlns:sodipodi="http://sodipodi.sourceforge.net/DTD/sodipodi-0.dtd"
   xmlns="http://www.w3.org/2000/svg"
   xmlns:svg="http://www.w3.org/2000/svg"
   xmlns:rdf="http://www.w3.org/1999/02/22-rdf-syntax-ns#"
   xmlns:cc="http://creativecommons.org/ns#"
   xmlns:dc="http://purl.org/dc/elements/1.1/"><metadata
     id="metadata42"><rdf:RDF><cc:Work
         rdf:about=""><dc:format>image/svg+xml</dc:format><dc:type
           rdf:resource="http://purl.org/dc/dcmitype/StillImage" /></cc:Work></rdf:RDF></metadata><defs
     id="defs40" /><sodipodi:namedview
     pagecolor="#ffffff"
     bordercolor="#666666"
     borderopacity="1"
     objecttolerance="10"
     gridtolerance="10"
     guidetolerance="10"
     inkscape:pageopacity="0"
     inkscape:pageshadow="2"
     inkscape:window-width="1920"
     inkscape:window-height="1018"
     id="namedview38"
     showgrid="false"
     inkscape:zoom="1.8509804"
     inkscape:cx="245.54555"
     inkscape:cy="214.2108"
     inkscape:window-x="0"
     inkscape:window-y="27"
     inkscape:window-maximized="1"
     inkscape:current-layer="Capa_1"
     inkscape:showpageshadow="2"
     inkscape:pagecheckerboard="0"
     inkscape:deskcolor="#d1d1d1" /><path
     id="path8"
     d="m 287.22401,212.01375 a 4.1444798,4.6613969 0 0 0 -4.09477,-3.94528 h -39.38557 a 97.436702,109.58942 0 0 0 -10.13043,-27.47056 l 27.84211,-31.31734 a 4.1397459,4.6560727 0 0 0 0.41657,-6.04305 140.12175,157.59834 0 0 0 -30.50252,-34.31492 4.1492136,4.6667212 0 0 0 -5.3729,0.46854 l -27.84211,31.32533 a 97.436702,109.58942 0 0 0 -24.42427,-11.3966 V 85.024617 a 4.1444798,4.6613969 0 0 0 -3.50777,-4.605474 141.93956,159.64286 0 0 0 -43.16318,0 4.1444798,4.6613969 0 0 0 -3.50778,4.605474 V 129.32255 A 97.436702,109.58942 0 0 0 99.12712,140.71647 L 71.282656,109.39114 a 4.1444798,4.6613969 0 0 0 -5.372903,-0.46854 140.12175,157.59834 0 0 0 -30.509627,34.31758 4.1397459,4.6560727 0 0 0 0.416578,6.04304 l 27.851571,31.31469 a 97.436702,109.58942 0 0 0 -10.132799,27.47056 h -39.38321 a 4.1444798,4.6613969 0 0 0 -4.094763,3.94528 141.35256,158.98265 0 0 0 0,48.54668 4.1444798,4.6613969 0 0 0 4.094763,3.94528 h 39.385578 a 97.436702,109.58942 0 0 0 10.130431,27.47057 l -27.851571,31.31734 a 4.1397459,4.6560727 0 0 0 -0.416578,6.04306 140.12175,157.59834 0 0 0 30.511994,34.31756 4.1421129,4.6587348 0 0 0 5.372904,-0.46853 L 99.12712,331.85772 a 97.436702,109.58942 0 0 0 24.42427,11.3966 v 44.29791 a 4.1444798,4.6613969 0 0 0 3.50541,4.60283 141.35256,158.98265 0 0 0 43.16317,0 4.1444798,4.6613969 0 0 0 3.51015,-4.60549 v -44.29792 a 97.436702,109.58942 0 0 0 24.42427,-11.39393 l 27.84447,31.31468 a 4.1444798,4.6613969 0 0 0 5.37291,0.46854 140.12175,157.59834 0 0 0 30.51199,-34.31759 4.1397459,4.6560727 0 0 0 -0.41658,-6.04303 l -27.85394,-31.30404 a 97.436702,109.58942 0 0 0 10.1328,-27.47057 h 39.38558 a 4.1444798,4.6613969 0 0 0 4.09239,-3.94262 141.35256,158.98265 0 0 0 0,-48.54667 z m -7.69248,43.17451 h -39.03528 a 4.1444798,4.6613969 0 0 0 -4.04033,3.62581 89.173773,100.29591 0 0 1 -11.56479,31.38657 4.1444798,4.6613969 0 0 0 0.57517,5.77949 l 27.5983,31.04049 a 131.73576,148.1664 0 0 1 -23.75205,26.71452 l -27.59831,-31.0405 a 4.1468467,4.6640592 0 0 0 -5.13858,-0.6469 89.173773,100.29591 0 0 1 -27.90602,13.0072 4.1444798,4.6613969 0 0 0 -3.22373,4.54427 v 43.90392 a 134.04351,150.76199 0 0 1 -33.6103,0 v -43.90392 a 4.1444798,4.6613969 0 0 0 -3.22375,-4.54427 89.173773,100.29591 0 0 1 -27.906,-13.0072 4.1397459,4.6560727 0 0 0 -5.138579,0.6469 l -27.598313,31.0405 A 131.73576,148.1664 0 0 1 44.216904,327.02062 l 27.59831,-31.04049 a 4.1444798,4.6613969 0 0 0 0.575174,-5.77949 89.173773,100.29591 0 0 1 -11.562421,-31.38657 4.1444798,4.6613969 0 0 0 -4.042703,-3.62581 H 17.749992 a 133.3216,149.95004 0 0 1 0,-37.80233 h 39.035272 a 4.1444798,4.6613969 0 0 0 4.042703,-3.62581 89.173773,100.29591 0 0 1 11.564779,-31.38657 4.1444798,4.6613969 0 0 0 -0.575164,-5.77949 l -27.598298,-31.0405 a 131.73576,148.1664 0 0 1 23.749684,-26.7145 l 27.598313,31.04048 a 4.1421129,4.6587348 0 0 0 5.138579,0.6469 89.173773,100.29591 0 0 1 27.906,-13.00453 4.1444798,4.6613969 0 0 0 3.22375,-4.54693 V 89.071064 a 134.04351,150.76199 0 0 1 33.6103,0 v 43.903916 a 4.1444798,4.6613969 0 0 0 3.22373,4.54693 89.173773,100.29591 0 0 1 27.90602,13.0072 4.1468467,4.6640592 0 0 0 5.13858,-0.6469 l 27.59831,-31.04049 a 131.73576,148.1664 0 0 1 23.75205,26.71451 l -27.5983,31.0405 a 4.1444798,4.6613969 0 0 0 -0.57517,5.77948 89.173773,100.29591 0 0 1 11.56479,31.38658 4.1444798,4.6613969 0 0 0 4.04033,3.62581 h 39.03528 a 133.3216,149.95004 0 0 1 0,37.80231 z m -130.89077,-82.4117 a 56.46765,63.510536 0 1 0 56.46764,63.51053 56.531558,63.582415 0 0 0 -56.46764,-63.51053 z m 0,117.70626 a 48.183424,54.193067 0 1 1 48.18342,-54.19573 48.237865,54.254296 0 0 1 -48.18342,54.19307 z"
     style="fill:#000000;stroke-width:2.5102" /></svg>
