<?xml version="1.0" encoding="UTF-8" standalone="no"?>
<!-- Generator: Adobe Illustrator 16.0.0, SVG Export Plug-In . SVG Version: 6.00 Build 0)  -->

<svg
   version="1.1"
   id="Capa_1"
   x="0px"
   y="0px"
   width="400"
   height="467.05884"
   viewBox="0 0 400 467.05884"
   xml:space="preserve"
   inkscape:version="1.2.2 (b0a8486541, 2022-12-01)"
   sodipodi:docname="settings.svg"
   xmlns:inkscape="http://www.inkscape.org/namespaces/inkscape"
   xmlns:sodipodi="http://sodipodi.sourceforge.net/DTD/sodipodi-0.dtd"
   xmlns="http://www.w3.org/2000/svg"
   xmlns:svg="http://www.w3.org/2000/svg"
   xmlns:rdf="http://www.w3.org/1999/02/22-rdf-syntax-ns#"
   xmlns:cc="http://creativecommons.org/ns#"
   xmlns:dc="http://purl.org/dc/elements/1.1/"><metadata
     id="metadata42"><rdf:RDF><cc:Work
         rdf:about=""><dc:format>image/svg+xml</dc:format><dc:type
           rdf:resource="http://purl.org/dc/dcmitype/StillImage" /></cc:Work></rdf:RDF></metadata><defs
     id="defs40" /><sodipodi:namedview
     pagecolor="#ffffff"
     bordercolor="#666666"
     borderopacity="1"
     objecttolerance="10"
     gridtolerance="10"
     guidetolerance="10"
     inkscape:pageopacity="0"
     inkscape:pageshadow="2"
     inkscape:window-width="1920"
     inkscape:window-height="1018"
     id="namedview38"
     showgrid="false"
     inkscape:zoom="1.8509804"
     inkscape:cx="123.98835"
     inkscape:cy="257.70127"
     inkscape:window-x="0"
     inkscape:window-y="27"
     inkscape:window-maximized="1"
     inkscape:current-layer="Capa_1"
     inkscape:showpageshadow="2"
     inkscape:pagecheckerboard="0"
     inkscape:deskcolor="#d1d1d1" /><path
     id="path8"
     d="m 287.22401,212.01375 a 4.1444798,4.6613969 0 0 0 -4.09477,-3.94528 h -39.38557 a 97.436702,109.58942 0 0 0 -10.13043,-27.47056 l 27.84211,-31.31734 a 4.1397459,4.6560727 0 0 0 0.41657,-6.04305 140.12175,157.59834 0 0 0 -30.50252,-34.31492 4.1492136,4.6667212 0 0 0 -5.3729,0.46854 l -27.84211,31.32533 a 97.436702,109.58942 0 0 0 -24.42427,-11.3966 V 85.024617 a 4.1444798,4.6613969 0 0 0 -3.50777,-4.605474 141.93956,159.64286 0 0 0 -43.16318,0 4.1444798,4.6613969 0 0 0 -3.50778,4.605474 V 129.32255 A 97.436702,109.58942 0 0 0 99.12712,140.71647 L 71.282656,109.39114 a 4.1444798,4.6613969 0 0 0 -5.372903,-0.46854 140.12175,157.59834 0 0 0 -30.509627,34.31758 4.1397459,4.6560727 0 0 0 0.416578,6.04304 l 27.851571,31.31469 a 97.436702,109.58942 0 0 0 -10.132799,27.47056 h -39.38321 a 4.1444798,4.6613969 0 0 0 -4.094763,3.94528 141.35256,158.98265 0 0 0 0,48.54668 4.1444798,4.6613969 0 0 0 4.094763,3.94528 h 39.385578 a 97.436702,109.58942 0 0 0 10.130431,27.47057 l -27.851571,31.31734 a 4.1397459,4.6560727 0 0 0 -0.416578,6.04306 140.12175,157.59834 0 0 0 30.511994,34.31756 4.1421129,4.6587348 0 0 0 5.372904,-0.46853 L 99.12712,331.85772 a 97.436702,109.58942 0 0 0 24.42427,11.3966 v 44.29791 a 4.1444798,4.6613969 0 0 0 3.50541,4.60283 141.35256,158.98265 0 0 0 43.16317,0 4.1444798,4.6613969 0 0 0 3.51015,-4.60549 v -44.29792 a 97.436702,109.58942 0 0 0 24.42427,-11.39393 l 27.84447,31.31468 a 4.1444798,4.6613969 0 0 0 5.37291,0.46854 140.12175,157.59834 0 0 0 30.51199,-34.31759 4.1397459,4.6560727 0 0 0 -0.41658,-6.04303 l -27.85394,-31.30404 a 97.436702,109.58942 0 0 0 10.1328,-27.47057 h 39.38558 a 4.1444798,4.6613969 0 0 0 4.09239,-3.94262 141.35256,158.98265 0 0 0 0,-48.54667 z m -7.69248,43.17451 h -39.03528 a 4.1444798,4.6613969 0 0 0 -4.04033,3.62581 89.173773,100.29591 0 0 1 -11.56479,31.38657 4.1444798,4.6613969 0 0 0 0.57517,5.77949 l 27.5983,31.04049 a 131.73576,148.1664 0 0 1 -23.75205,26.71452 l -27.59831,-31.0405 a 4.1468467,4.6640592 0 0 0 -5.13858,-0.6469 89.173773,100.29591 0 0 1 -27.90602,13.0072 4.1444798,4.6613969 0 0 0 -3.22373,4.54427 v 43.90392 a 134.04351,150.76199 0 0 1 -33.6103,0 v -43.90392 a 4.1444798,4.6613969 0 0 0 -3.22375,-4.54427 89.173773,100.29591 0 0 1 -27.906,-13.0072 4.1397459,4.6560727 0 0 0 -5.138579,0.6469 l -27.598313,31.0405 A 131.73576,148.1664 0 0 1 44.216904,327.02062 l 27.59831,-31.04049 a 4.1444798,4.6613969 0 0 0 0.575174,-5.77949 89.173773,100.29591 0 0 1 -11.562421,-31.38657 4.1444798,4.6613969 0 0 0 -4.042703,-3.62581 H 17.749992 a 133.3216,149.95004 0 0 1 0,-37.80233 h 39.035272 a 4.1444798,4.6613969 0 0 0 4.042703,-3.62581 89.173773,100.29591 0 0 1 11.564779,-31.38657 4.1444798,4.6613969 0 0 0 -0.575164,-5.77949 l -27.598298,-31.0405 a 131.73576,148.1664 0 0 1 23.749684,-26.7145 l 27.598313,31.04048 a 4.1421129,4.6587348 0 0 0 5.138579,0.6469 89.173773,100.29591 0 0 1 27.906,-13.00453 4.1444798,4.6613969 0 0 0 3.22375,-4.54693 V 89.071064 a 134.04351,150.76199 0 0 1 33.6103,0 v 43.903916 a 4.1444798,4.6613969 0 0 0 3.22373,4.54693 89.173773,100.29591 0 0 1 27.90602,13.0072 4.1468467,4.6640592 0 0 0 5.13858,-0.6469 l 27.59831,-31.04049 a 131.73576,148.1664 0 0 1 23.75205,26.71451 l -27.5983,31.0405 a 4.1444798,4.6613969 0 0 0 -0.57517,5.77948 89.173773,100.29591 0 0 1 11.56479,31.38658 4.1444798,4.6613969 0 0 0 4.04033,3.62581 h 39.03528 a 133.3216,149.95004 0 0 1 0,37.80231 z m -130.89077,-82.4117 a 56.46765,63.510536 0 1 0 56.46764,63.51053 56.531558,63.582415 0 0 0 -56.46764,-63.51053 z m 0,117.70626 a 48.183424,54.193067 0 1 1 48.18342,-54.19573 48.237865,54.254296 0 0 1 -48.18342,54.19307 z"
     style="fill:#ffffff;stroke-width:2.5102" /><path
     style="fill:#ffffff;stroke:#ffffff;stroke-width:2.70127"
     d="m 137.4947,384.34567 c -0.74285,-0.13164 -2.38387,-0.37255 -3.64671,-0.53536 l -2.29608,-0.29601 v -22.86785 c 0,-20.99209 -0.0776,-22.95971 -0.94545,-23.98781 -0.55682,-0.6596 -3.16616,-1.82089 -6.34799,-2.82517 -6.8643,-2.1666 -13.80742,-5.40622 -19.95998,-9.31323 -2.65807,-1.68793 -5.369096,-3.06897 -6.024494,-3.06897 -1.365801,0 -3.672108,2.39931 -18.856623,19.61696 -8.249742,9.35435 -10.539345,11.64696 -11.663201,11.67852 -2.878699,0.0808 -22.642943,-22.12017 -22.642943,-25.43462 0,-1.17174 2.882199,-4.72267 13.776483,-16.97293 11.977847,-13.46868 13.776483,-15.7194 13.776483,-17.23915 0,-1.01548 -1.334477,-4.55376 -3.18454,-8.44361 -3.844166,-8.08254 -5.535973,-12.72499 -7.613388,-20.89172 -0.865936,-3.40416 -1.986201,-6.6444 -2.489478,-7.20051 -0.85864,-0.94879 -2.166565,-1.01983 -21.216894,-1.1526 l -20.301846,-0.14148 -0.478964,-2.43115 c -0.623425,-3.1644 -0.760693,-27.29286 -0.182107,-32.01006 l 0.447287,-3.64672 h 20.156681 c 18.398369,0 20.257045,-0.0825 21.30722,-0.94544 0.814963,-0.66969 1.612596,-2.78328 2.734725,-7.24655 1.9483,-7.74936 4.723104,-15.26814 8.188288,-22.18749 1.648845,-3.29245 2.633016,-5.96506 2.633016,-7.15021 0,-1.70815 -1.342219,-3.40401 -13.776483,-17.40622 -10.159541,-11.44065 -13.776483,-15.86656 -13.776483,-16.85774 0,-1.95785 6.665583,-10.47402 14.529886,-18.56387 5.201285,-5.35045 7.010446,-6.88807 8.103813,-6.88749 1.162969,6.5e-4 3.708087,2.59519 14.643843,14.92832 7.279926,8.21016 13.771334,15.2803 14.42535,15.71142 1.518881,1.00124 2.61778,0.64019 7.330579,-2.40851 5.62596,-3.63941 12.43626,-6.86739 19.57618,-9.27881 3.50555,-1.18396 6.64084,-2.41955 6.96731,-2.74577 0.40432,-0.404 0.67972,-8.03487 0.86372,-23.93257 l 0.27012,-23.339448 3.24153,-0.415566 c 4.19578,-0.537903 22.81693,-0.537903 27.01271,0 l 3.24153,0.415566 0.27012,23.039678 c 0.24848,21.19314 0.34796,23.12564 1.24125,24.11223 0.53413,0.5899 3.41,1.84568 6.39084,2.79063 7.14261,2.26424 12.31895,4.66532 19.52149,9.05518 5.69925,3.47362 5.97625,3.57967 7.34792,2.81304 0.78398,-0.43816 7.38171,-7.51656 14.66164,-15.72977 9.9829,-11.26271 13.54702,-14.94334 14.5007,-14.97474 2.4519,-0.0807 12.07716,9.67493 20.37619,20.65223 3.22229,4.2622 3.51508,4.85156 2.81811,5.67267 -0.42777,0.50397 -6.61788,7.49152 -13.75577,15.52788 -7.13791,8.03637 -13.25626,15.13148 -13.59633,15.76692 -1.0232,1.91187 -0.75383,2.94864 2.57952,9.92799 3.34045,6.99423 7.03294,17.36511 8.15457,22.90326 0.77004,3.80216 1.77029,5.95011 2.98853,6.41759 0.481,0.18458 9.835,0.33559 20.78666,0.33559 h 19.91212 l 0.4383,2.56621 c 0.24106,1.41141 0.43829,8.88718 0.43829,16.61282 0,7.72563 -0.19723,15.2014 -0.43829,16.61282 l -0.4383,2.5662 h -20.41283 c -18.75856,0 -20.48133,0.0766 -21.25821,0.94545 -0.46497,0.51999 -1.48474,3.48523 -2.26617,6.58941 -2.33123,9.26075 -6.37075,19.87258 -9.77772,25.68613 -1.64612,2.80889 -1.68379,5.06786 -0.11825,7.09016 0.6636,0.8572 7.11123,8.19838 14.32808,16.31372 8.03297,9.03308 12.97361,15.00417 12.7401,15.39725 -4.18248,7.04062 -20.92612,25.22365 -23.2269,25.22365 -0.86828,0 -4.58602,-3.84214 -13.98388,-14.45181 -14.47106,-16.33702 -15.00676,-16.88294 -16.56712,-16.88294 -0.62231,0 -3.07834,1.24886 -5.45785,2.77525 -5.85683,3.75701 -14.07316,7.6142 -20.91293,9.81769 -4.4131,1.42171 -5.81043,2.11143 -6.33048,3.12474 -0.49772,0.96982 -0.66937,7.01738 -0.67531,23.79293 l -0.008,22.49261 -1.21557,0.37235 c -1.39519,0.42737 -24.83992,0.87994 -26.87765,0.51883 z m 17.01801,-85.10099 c 12.35491,-1.50775 23.02149,-6.99679 32.25664,-16.59931 8.85554,-9.20781 14.31304,-19.95314 17.00929,-33.48972 1.28926,-6.47282 1.27466,-19.76821 -0.0286,-26.03065 -5.23044,-25.13349 -21.70979,-43.49571 -43.97672,-49.00134 -5.70922,-1.41163 -17.48841,-1.26629 -23.35913,0.28823 -18.92305,5.01067 -34.36598,20.37849 -40.733559,40.53546 -4.401289,13.93255 -4.322812,29.83735 0.214038,43.37895 7.542221,22.51201 25.375381,38.17964 46.597201,40.93876 4.93262,0.64131 6.62225,0.63845 12.02083,-0.0204 z"
     id="path997" /></svg>
