<?xml version="1.0" encoding="UTF-8" standalone="no"?>
<svg
   height="40"
   viewBox="0 -960 800 800"
   width="40"
   fill="#ffffff"
   version="1.1"
   id="svg1"
   sodipodi:docname="switch-accounts-light.svg"
   inkscape:version="1.4 (e7c3feb100, 2024-10-09)"
   xmlns:inkscape="http://www.inkscape.org/namespaces/inkscape"
   xmlns:sodipodi="http://sodipodi.sourceforge.net/DTD/sodipodi-0.dtd"
   xmlns="http://www.w3.org/2000/svg"
   xmlns:svg="http://www.w3.org/2000/svg">
  <defs
     id="defs1" />
  <sodipodi:namedview
     id="namedview1"
     pagecolor="#ffffff"
     bordercolor="#000000"
     borderopacity="0.25"
     inkscape:showpageshadow="2"
     inkscape:pageopacity="0.0"
     inkscape:pagecheckerboard="0"
     inkscape:deskcolor="#d1d1d1"
     inkscape:zoom="15.9375"
     inkscape:cx="19.984314"
     inkscape:cy="19.984314"
     inkscape:window-width="1920"
     inkscape:window-height="984"
     inkscape:window-x="0"
     inkscape:window-y="0"
     inkscape:window-maximized="1"
     inkscape:current-layer="svg1" />
  <path
     d="m 459.88,-560 q 49.12,0 83.62,-34.38 34.5,-34.38 34.5,-83.5 0,-49.12 -34.38,-83.62 -34.38,-34.5 -83.5,-34.5 -49.12,0 -83.62,34.38 -34.5,34.38 -34.5,83.5 0,49.12 34.38,83.62 34.38,34.5 83.5,34.5 z M 180,-280 q -24.75,0 -42.37,-17.63 Q 120,-315.25 120,-340 v -560 q 0,-24.75 17.63,-42.38 Q 155.25,-960 180,-960 h 560 q 24.75,0 42.38,17.62 Q 800,-924.75 800,-900 v 560 q 0,24.75 -17.62,42.37 Q 764.75,-280 740,-280 Z M 60,-160 Q 35.25,-160 17.63,-177.63 0,-195.25 0,-220 v -570 h 60 v 570 h 570 v 60 z M 180,-340 H 740 Q 689,-405 616,-442.5 543,-480 460,-480 q -83,0 -156,37.5 -73,37.5 -124,102.5 z"
     id="path1" />
</svg>
