<?xml version="1.0" encoding="UTF-8" standalone="no"?>
<svg
   height="40"
   viewBox="0 -960 800 800"
   width="40"
   fill="#ffffff"
   version="1.1"
   id="svg1"
   sodipodi:docname="mood_160dp_FFFFFF_FILL1_wght400_GRAD0_opsz48.svg"
   inkscape:version="1.4 (e7c3feb100, 2024-10-09)"
   xmlns:inkscape="http://www.inkscape.org/namespaces/inkscape"
   xmlns:sodipodi="http://sodipodi.sourceforge.net/DTD/sodipodi-0.dtd"
   xmlns="http://www.w3.org/2000/svg"
   xmlns:svg="http://www.w3.org/2000/svg">
  <defs
     id="defs1" />
  <sodipodi:namedview
     id="namedview1"
     pagecolor="#ffffff"
     bordercolor="#000000"
     borderopacity="0.25"
     inkscape:showpageshadow="2"
     inkscape:pageopacity="0.0"
     inkscape:pagecheckerboard="0"
     inkscape:deskcolor="#d1d1d1"
     inkscape:zoom="15.9375"
     inkscape:cx="19.984314"
     inkscape:cy="19.984314"
     inkscape:window-width="1920"
     inkscape:window-height="984"
     inkscape:window-x="0"
     inkscape:window-y="0"
     inkscape:window-maximized="1"
     inkscape:current-layer="svg1" />
  <path
     d="m 546,-613 q 22.5,0 38.25,-15.75 Q 600,-644.5 600,-667 600,-689.5 584.25,-705.25 568.5,-721 546,-721 q -22.5,0 -38.25,15.75 Q 492,-689.5 492,-667 q 0,22.5 15.75,38.25 Q 523.5,-613 546,-613 Z m -292,0 q 22.5,0 38.25,-15.75 Q 308,-644.5 308,-667 308,-689.5 292.25,-705.25 276.5,-721 254,-721 q -22.5,0 -38.25,15.75 Q 200,-689.5 200,-667 q 0,22.5 15.75,38.25 Q 231.5,-613 254,-613 Z m 146,272 q 66,0 121.5,-35.5 Q 577,-412 602,-473 H 198 q 26,61 81,96.5 55,35.5 121,35.5 z m 0,181 q -83,0 -156,-31.5 Q 171,-223 117,-277 63,-331 31.5,-404 0,-477 0,-560 0,-643 31.5,-716 63,-789 117,-843 q 54,-54 127,-85.5 73,-31.5 156,-31.5 83,0 156,31.5 73,31.5 127,85.5 54,54 85.5,127 31.5,73 31.5,156 0,83 -31.5,156 -31.5,73 -85.5,127 -54,54 -127,85.5 -73,31.5 -156,31.5 z"
     id="path1" />
</svg>
