<?xml version="1.0" encoding="UTF-8" standalone="no"?>
<!-- Created with Inkscape (http://www.inkscape.org/) -->

<svg
   width="128"
   height="128"
   id="svg2"
   version="1.1"
   inkscape:version="1.2.2 (732a01da63, 2022-12-09)"
   sodipodi:docname="link-light.svg"
   inkscape:export-filename="./Portal Design - Icone link - 1.0.0 - 2048x2048 [portal-design.originuum.com.br].png"
   inkscape:export-xdpi="90"
   inkscape:export-ydpi="90"
   xmlns:inkscape="http://www.inkscape.org/namespaces/inkscape"
   xmlns:sodipodi="http://sodipodi.sourceforge.net/DTD/sodipodi-0.dtd"
   xmlns="http://www.w3.org/2000/svg"
   xmlns:svg="http://www.w3.org/2000/svg"
   xmlns:rdf="http://www.w3.org/1999/02/22-rdf-syntax-ns#"
   xmlns:cc="http://creativecommons.org/ns#"
   xmlns:dc="http://purl.org/dc/elements/1.1/">
  <defs
     id="defs4" />
  <sodipodi:namedview
     id="base"
     pagecolor="#ffffff"
     bordercolor="#666666"
     borderopacity="1.0"
     inkscape:pageopacity="0.0"
     inkscape:pageshadow="2"
     inkscape:zoom="3.9597979"
     inkscape:cx="67.553952"
     inkscape:cy="62.755728"
     inkscape:document-units="px"
     inkscape:current-layer="layer1"
     showgrid="false"
     inkscape:snap-bbox="true"
     inkscape:bbox-paths="true"
     inkscape:bbox-nodes="true"
     inkscape:snap-bbox-edge-midpoints="true"
     inkscape:snap-bbox-midpoints="true"
     showguides="true"
     inkscape:guide-bbox="true"
     fit-margin-top="0"
     fit-margin-left="0"
     fit-margin-right="0"
     fit-margin-bottom="0"
     inkscape:window-width="1600"
     inkscape:window-height="823"
     inkscape:window-x="-9"
     inkscape:window-y="-9"
     inkscape:window-maximized="1"
     inkscape:showpageshadow="2"
     inkscape:pagecheckerboard="0"
     inkscape:deskcolor="#d1d1d1">
    <sodipodi:guide
       orientation="0,1"
       position="-462.05815,-2535.7512"
       id="guide3787"
       inkscape:locked="false" />
  </sodipodi:namedview>
  <metadata
     id="metadata7">
    <rdf:RDF>
      <cc:Work
         rdf:about="">
        <dc:format>image/svg+xml</dc:format>
        <dc:type
           rdf:resource="http://purl.org/dc/dcmitype/StillImage" />
      </cc:Work>
    </rdf:RDF>
  </metadata>
  <g
     inkscape:label="Camada 1"
     inkscape:groupmode="layer"
     id="layer1"
     transform="translate(-187.29666,1562.9016)">
    <g
       id="g3798"
       transform="matrix(-0.06254987,0,0,0.06254951,327.01205,-1465.2443)"
       style="fill:#ffffff">
      <path
         id="rect2985"
         transform="translate(186.47237,-1562.0929)"
         d="M 1389.875,0.8125 C 1339.4591,0.8069875 1289.0443,19.7057 1251.25,57.5 L 822.9375,485.8125 c -75.58842,75.5884 -75.58839,201.69283 0,277.28125 l 28,27.96875 140.5,-140.5 -26.15625,-26.125 424.59375,-424.59375 458.2812,458.28125 -424.5937,424.5938 -26.125,-26.1563 -140.5,140.5 28,28 c 75.5884,75.5884 201.6615,75.5573 277.25,-0.031 L 1990.5,796.75 c 75.5884,-75.58844 75.5884,-201.66154 0,-277.25 L 1528.5,57.53125 C 1490.7058,19.737 1440.2909,0.8180125 1389.875,0.8125 Z"
         style="color:#000000;font-style:normal;font-variant:normal;font-weight:normal;font-stretch:normal;font-size:medium;line-height:normal;font-family:Sans;-inkscape-font-specification:Sans;text-indent:0;text-align:start;text-decoration:none;text-decoration-line:none;letter-spacing:normal;word-spacing:normal;text-transform:none;writing-mode:lr-tb;direction:ltr;baseline-shift:baseline;text-anchor:start;display:inline;overflow:visible;visibility:visible;fill:#ffffff;fill-opacity:1;stroke:none;stroke-width:198.661;marker:none;enable-background:accumulate"
         inkscape:connector-curvature="0" />
      <path
         id="use3779"
         transform="translate(186.47237,-1562.0929)"
         d="m 624.4375,766.25 c -50.42147,10e-6 -100.83079,18.8933 -138.625,56.6875 L 57.5,1251.25 c -75.58845,75.5884 -75.55719,201.6616 0.03125,277.25 L 519.5,1990.5 c 75.58843,75.5884 201.66157,75.5884 277.25,0 l 428.2812,-428.3125 c 75.5885,-75.5884 75.6198,-201.6616 0.031,-277.25 l -28,-28 -140.4687,140.4687 26.1562,26.125 -424.625,424.625 L 199.84375,1389.875 624.4375,965.25 650.59375,991.40625 791.0625,850.9375 l -27.96875,-28 C 725.29955,785.1433 674.85897,766.24999 624.4375,766.25 Z"
         style="color:#000000;font-style:normal;font-variant:normal;font-weight:normal;font-stretch:normal;font-size:medium;line-height:normal;font-family:Sans;-inkscape-font-specification:Sans;text-indent:0;text-align:start;text-decoration:none;text-decoration-line:none;letter-spacing:normal;word-spacing:normal;text-transform:none;writing-mode:lr-tb;direction:ltr;baseline-shift:baseline;text-anchor:start;display:inline;overflow:visible;visibility:visible;fill:#ffffff;fill-opacity:1;stroke:none;stroke-width:198.661;marker:none;enable-background:accumulate"
         inkscape:connector-curvature="0" />
      <path
         id="rect3785"
         transform="translate(186.47237,-1562.0929)"
         d="m 1206.4688,573.34375 c -11.2793,0 -22.5664,4.50387 -31.5626,13.5 L 586.84375,1174.9062 c -17.99229,17.9923 -17.99229,45.1328 0,63.125 L 810,1461.1875 c 17.99227,17.9923 45.10145,17.961 63.09375,-0.031 L 1461.1562,873.09375 c 17.9922,-17.99226 18.0236,-45.10146 0.031,-63.09375 l -223.156,-223.15625 c -8.9961,-8.99615 -20.2832,-13.5 -31.5624,-13.5 z"
         style="color:#000000;display:inline;overflow:visible;visibility:visible;fill:#ffffff;fill-opacity:1;fill-rule:evenodd;stroke:none;stroke-width:84.679;marker:none;enable-background:accumulate"
         inkscape:connector-curvature="0" />
    </g>
  </g>
</svg>
