<?xml version="1.0" encoding="UTF-8" standalone="no"?>
<!-- Generator: Adobe Illustrator 16.0.0, SVG Export Plug-In . SVG Version: 6.00 Build 0)  -->

<svg
   version="1.1"
   id="Capa_1"
   x="0px"
   y="0px"
   width="400"
   height="467.05884"
   viewBox="0 0 400 467.05884"
   xml:space="preserve"
   inkscape:version="1.2.2 (b0a8486541, 2022-12-01)"
   sodipodi:docname="notif-bell.svg"
   xmlns:inkscape="http://www.inkscape.org/namespaces/inkscape"
   xmlns:sodipodi="http://sodipodi.sourceforge.net/DTD/sodipodi-0.dtd"
   xmlns="http://www.w3.org/2000/svg"
   xmlns:svg="http://www.w3.org/2000/svg"
   xmlns:rdf="http://www.w3.org/1999/02/22-rdf-syntax-ns#"
   xmlns:cc="http://creativecommons.org/ns#"
   xmlns:dc="http://purl.org/dc/elements/1.1/"><metadata
     id="metadata42"><rdf:RDF><cc:Work
         rdf:about=""><dc:format>image/svg+xml</dc:format><dc:type
           rdf:resource="http://purl.org/dc/dcmitype/StillImage" /></cc:Work></rdf:RDF></metadata><defs
     id="defs40" /><sodipodi:namedview
     pagecolor="#ffffff"
     bordercolor="#666666"
     borderopacity="1"
     objecttolerance="10"
     gridtolerance="10"
     guidetolerance="10"
     inkscape:pageopacity="0"
     inkscape:pageshadow="2"
     inkscape:window-width="1920"
     inkscape:window-height="1018"
     id="namedview38"
     showgrid="false"
     inkscape:zoom="1.8509804"
     inkscape:cx="245.54555"
     inkscape:cy="213.94068"
     inkscape:window-x="0"
     inkscape:window-y="27"
     inkscape:window-maximized="1"
     inkscape:current-layer="Capa_1"
     inkscape:showpageshadow="2"
     inkscape:pagecheckerboard="0"
     inkscape:deskcolor="#d1d1d1" /><g
     id="g3"
     transform="matrix(0.48108932,0,0,0.57781359,32.131065,107.54019)"
     style="fill:none;stroke:#000000;stroke-width:22.8158;stroke-dasharray:none"><g
       id="notifications"
       style="fill:none;stroke:#000000;stroke-width:22.8158;stroke-dasharray:none"><path
         d="m 255,510 c 28.05,0 51,-22.95 51,-51 H 204 c 0,28.05 22.95,51 51,51 z M 420.75,357 V 216.75 C 420.75,137.7 367.2,73.95 293.25,56.1 V 38.25 C 293.25,17.85 275.4,0 255,0 234.6,0 216.75,17.85 216.75,38.25 V 56.1 C 142.8,73.95 89.25,137.7 89.25,216.75 V 357 l -51,51 v 25.5 h 433.5 V 408 Z"
         id="path6"
         inkscape:connector-curvature="0"
         style="fill:none;stroke:#000000;stroke-width:22.8158;stroke-dasharray:none" /></g></g><g
     id="g8"
     transform="translate(-54.999999,-21.470588)" /><g
     id="g10"
     transform="translate(-54.999999,-21.470588)" /><g
     id="g12"
     transform="translate(-54.999999,-21.470588)" /><g
     id="g14"
     transform="translate(-54.999999,-21.470588)" /><g
     id="g16"
     transform="translate(-54.999999,-21.470588)" /><g
     id="g18"
     transform="translate(-54.999999,-21.470588)" /><g
     id="g20"
     transform="translate(-54.999999,-21.470588)" /><g
     id="g22"
     transform="translate(-54.999999,-21.470588)" /><g
     id="g24"
     transform="translate(-54.999999,-21.470588)" /><g
     id="g26"
     transform="translate(-54.999999,-21.470588)" /><g
     id="g28"
     transform="translate(-54.999999,-21.470588)" /><g
     id="g30"
     transform="translate(-54.999999,-21.470588)" /><g
     id="g32"
     transform="translate(-54.999999,-21.470588)" /><g
     id="g34"
     transform="translate(-54.999999,-21.470588)" /><g
     id="g36"
     transform="translate(-54.999999,-21.470588)" /><path
     style="fill:#000000;stroke:#000000;stroke-width:5;stroke-dasharray:none"
     d="m 146.9031,393.45319 c -4.67266,-2.84947 -9.13827,-8.5065 -9.13827,-11.57635 v -2.61837 h 17.84289 17.84289 l -1.68683,4.03716 c -4.47691,10.71474 -16.13564,15.47826 -24.86068,10.15756 z"
     id="path1638" /><path
     style="fill:#000000;stroke:#000000;stroke-width:5;stroke-dasharray:none"
     d="m 172.53031,143.34892 -37.74703,0.30814"
     id="path1750" /><path
     style="fill:#000000;stroke:#000000;stroke-width:2.70127;stroke-dasharray:none"
     d="m 141.91287,133.03761 c 0.20919,-8.53847 0.62595,-10.02664 4.0777,-14.56046 1.64034,-2.15455 6.20747,-4.48351 8.79227,-4.48351 3.00095,0 7.37028,2.45605 9.49828,5.33909 2.75946,3.73855 3.46782,6.75116 3.46782,14.74838 v 6.92525 h -13.01565 -13.01565 z"
     id="path1781" /></svg>
