<?xml version="1.0" encoding="UTF-8" standalone="no"?>
<svg
   height="40"
   viewBox="0 -960 800 800"
   width="40"
   fill="#000000"
   version="1.1"
   id="svg1"
   sodipodi:docname="your-channel.svg"
   inkscape:version="1.4 (e7c3feb100, 2024-10-09)"
   xmlns:inkscape="http://www.inkscape.org/namespaces/inkscape"
   xmlns:sodipodi="http://sodipodi.sourceforge.net/DTD/sodipodi-0.dtd"
   xmlns="http://www.w3.org/2000/svg"
   xmlns:svg="http://www.w3.org/2000/svg">
  <defs
     id="defs1" />
  <sodipodi:namedview
     id="namedview1"
     pagecolor="#ffffff"
     bordercolor="#000000"
     borderopacity="0.25"
     inkscape:showpageshadow="2"
     inkscape:pageopacity="0.0"
     inkscape:pagecheckerboard="0"
     inkscape:deskcolor="#d1d1d1"
     inkscape:zoom="15.9375"
     inkscape:cx="19.984314"
     inkscape:cy="19.984314"
     inkscape:window-width="1920"
     inkscape:window-height="984"
     inkscape:window-x="0"
     inkscape:window-y="0"
     inkscape:window-maximized="1"
     inkscape:current-layer="svg1" />
  <path
     d="m 142,-335 q 63,-40 124.5,-60.5 Q 328,-416 400,-416 q 72,0 134,20.5 62,20.5 125,60.5 44,-54 62.5,-109 18.5,-55 18.5,-116 0,-145 -97.5,-242.5 Q 545,-900 400,-900 255,-900 157.5,-802.5 60,-705 60,-560 q 0,61 19,116 19,55 63,109 z m 257.81,-195 q -57.81,0 -97.31,-39.69 -39.5,-39.68 -39.5,-97.5 0,-57.81 39.69,-97.31 39.68,-39.5 97.5,-39.5 57.81,0 97.31,39.69 39.5,39.68 39.5,97.5 0,57.81 -39.69,97.31 -39.68,39.5 -97.5,39.5 z m -0.21,370 q -83.15,0 -156.28,-31.5 Q 170.19,-223 116.1,-277.5 62,-332 31,-404.84 0,-477.68 0,-560.5 0,-643.32 31.5,-716.16 63,-789 117.5,-843 172,-897 244.84,-928.5 317.68,-960 400.5,-960 q 82.82,0 155.66,31.5 Q 629,-897 683,-843 q 54,54 85.5,127 31.5,73 31.5,155.73 0,82.74 -31.5,155.5 Q 737,-332 683,-277.5 629,-223 555.87,-191.5 482.74,-160 399.6,-160 Z"
     id="path1" />
</svg>
